# xmcd CD database file
#
# Track frame offsets:
#	150
#	22885
#	49227
#
# Disc length: 940 seconds
#
# Revision: 3
# Processed by: cddbd v1.5.2PL0 Copyright (c) Steve Scherf et al.
# Submitted via: CDex 1.70beta2
#
DISCID=1b03aa03
DTITLE=ミツキヨ - 強烈ロマンス
DYEAR=2002
DGENRE=Rock
TTITLE0=強烈ロマンス
TTITLE1=花びらのように
TTITLE2=強烈ロマンス(This Year's Mix)
EXTD=品番:AMCT-10010 YEAR: 2002
EXTT0=
EXTT1=
EXTT2=
PLAYORDER=
